<svg width="512" height="512" viewBox="0 0 512 512" fill="none" xmlns="http://www.w3.org/2000/svg">
<circle cx="256.5" cy="256.5" r="235" fill="#086491" stroke="black" stroke-width="5"/>
<g filter="url(#filter0_di)">
<path d="M371 329.835C370.106 345.832 366.979 359.707 361.618 371.461C356.256 383.05 349.376 393.008 340.977 401.333C332.756 409.495 323.374 416.188 312.83 421.411C302.465 426.472 291.921 430.471 281.198 433.409C270.654 436.348 260.2 438.307 249.834 439.286C239.648 440.429 230.623 441 222.76 441C207.57 441 193.273 440.592 179.869 439.776C166.645 438.96 153.688 437.572 141 435.613C142.072 425.329 142.966 414.066 143.681 401.823C144.395 389.417 145.021 376.847 145.557 364.115C146.093 351.219 146.451 338.568 146.629 326.162C146.808 313.756 146.987 302.329 147.166 291.882C147.344 281.271 147.434 272.13 147.434 264.458C147.434 256.622 147.434 250.991 147.434 247.563C147.255 224.22 146.897 201.693 146.361 179.982C146.183 170.678 145.915 161.21 145.557 151.579C145.378 141.784 145.11 132.317 144.753 123.175C144.574 113.871 144.306 105.137 143.949 96.9754C143.591 88.6503 143.145 81.3046 142.608 74.9383C147.612 74.2853 153.063 73.7956 158.96 73.4691C165.037 73.1427 171.023 72.8978 176.921 72.7346C182.997 72.4081 188.894 72.2449 194.613 72.2449C200.51 72.0816 205.872 72 210.697 72C232.321 72 252.694 73.4691 271.816 76.4074C291.117 79.3457 307.915 84.4061 322.212 91.5886C336.688 98.6078 348.036 107.994 356.256 119.747C364.656 131.337 368.855 145.865 368.855 163.332C367.962 173.942 365.103 183.9 360.277 193.204C358.133 197.285 355.452 201.448 352.235 205.692C349.197 209.773 345.355 213.691 340.709 217.445C336.062 221.2 330.611 224.709 324.357 227.974C318.102 231.239 310.953 233.932 302.911 236.054C314.528 238.829 324.267 242.992 332.131 248.542C339.994 254.092 346.427 260.295 351.431 267.151C356.614 273.844 360.456 280.782 362.958 287.964C365.639 295.147 367.515 301.758 368.587 307.798C369.838 313.837 370.553 318.898 370.732 322.979C370.911 327.06 371 329.345 371 329.835ZM295.674 332.283C295.138 318.571 292.636 306.247 288.168 295.31C286.202 290.739 283.7 286.25 280.662 281.843C277.803 277.272 274.228 273.273 269.939 269.845C265.65 266.253 260.557 263.397 254.66 261.275C248.762 259.153 241.971 258.092 234.287 258.092C232.321 258.092 230.266 258.173 228.121 258.336C225.977 258.5 223.653 258.745 221.152 259.071L219.007 397.415C224.368 398.395 229.64 398.885 234.823 398.885C242.329 398.885 248.852 397.987 254.392 396.191C260.11 394.232 265.114 391.702 269.403 388.601C273.692 385.336 277.267 381.745 280.126 377.827C283.164 373.909 285.666 369.828 287.632 365.584C292.278 355.79 294.959 344.689 295.674 332.283ZM294.601 161.863C293.887 152.721 291.385 144.559 287.096 137.377C285.308 134.275 282.985 131.255 280.126 128.317C277.445 125.379 274.05 122.767 269.939 120.482C266.008 118.196 261.272 116.319 255.732 114.85C250.371 113.381 244.116 112.646 236.967 112.646C231.249 112.646 224.904 113.136 217.935 114.115L221.152 217.935H227.049C238.129 217.935 247.511 216.629 255.196 214.017C262.88 211.242 269.225 207.896 274.228 203.978C279.232 199.897 283.075 195.49 285.755 190.756C288.615 186.022 290.67 181.614 291.921 177.534C293.172 173.289 293.887 169.78 294.065 167.005C294.423 164.066 294.601 162.352 294.601 161.863Z" fill="black"/>
</g>
<g filter="url(#filter1_di)">
<circle cx="363.375" cy="363.375" r="83.125" fill="white"/>
<circle cx="363.375" cy="363.375" r="80.625" stroke="black" stroke-width="5"/>
</g>
<g filter="url(#filter2_di)">
<path d="M383.714 419.312H379.783C373.981 419.312 368.46 419.447 363.219 419.717C358.072 420.032 352.551 420.46 346.655 421C347.872 411.097 348.807 401.801 349.463 393.113C350.118 384.381 350.445 375.918 350.445 367.725C350.445 357.237 349.884 346.883 348.761 336.665L313.386 337.88C313.293 336.35 313.199 334.955 313.106 333.694C313.012 332.389 312.872 331.151 312.684 329.98C312.497 328.765 312.263 327.55 311.983 326.334C311.702 325.074 311.374 323.678 311 322.148H327.985C335.472 322.148 342.771 322.125 349.884 322.08C357.09 322.035 364.249 321.968 371.361 321.878C378.567 321.788 385.82 321.675 393.119 321.54C400.512 321.405 408.139 321.225 416 321C415.532 323.296 415.205 325.254 415.017 326.874C414.924 328.45 414.877 330.093 414.877 331.804V335.382L380.345 335.787C380.064 340.109 379.877 344.363 379.783 348.549C379.783 352.69 379.783 356.877 379.783 361.108C379.783 370.921 380.111 380.644 380.766 390.278C381.421 399.911 382.404 409.589 383.714 419.312Z" fill="black"/>
</g>
<defs>
<filter id="filter0_di" x="137" y="72" width="238" height="379" filterUnits="userSpaceOnUse" color-interpolation-filters="sRGB">
<feFlood flood-opacity="0" result="BackgroundImageFix"/>
<feColorMatrix in="SourceAlpha" type="matrix" values="0 0 0 0 0 0 0 0 0 0 0 0 0 0 0 0 0 0 127 0"/>
<feOffset dy="4"/>
<feGaussianBlur stdDeviation="2"/>
<feColorMatrix type="matrix" values="0 0 0 0 0 0 0 0 0 0 0 0 0 0 0 0 0 0 0.25 0"/>
<feBlend mode="normal" in2="BackgroundImageFix" result="effect1_dropShadow"/>
<feBlend mode="normal" in="SourceGraphic" in2="effect1_dropShadow" result="shape"/>
<feColorMatrix in="SourceAlpha" type="matrix" values="0 0 0 0 0 0 0 0 0 0 0 0 0 0 0 0 0 0 127 0" result="hardAlpha"/>
<feOffset dy="10"/>
<feGaussianBlur stdDeviation="5"/>
<feComposite in2="hardAlpha" operator="arithmetic" k2="-1" k3="1"/>
<feColorMatrix type="matrix" values="0 0 0 0 0 0 0 0 0 0 0 0 0 0 0 0 0 0 0.25 0"/>
<feBlend mode="normal" in2="shape" result="effect2_innerShadow"/>
</filter>
<filter id="filter1_di" x="276.25" y="280.25" width="174.25" height="174.25" filterUnits="userSpaceOnUse" color-interpolation-filters="sRGB">
<feFlood flood-opacity="0" result="BackgroundImageFix"/>
<feColorMatrix in="SourceAlpha" type="matrix" values="0 0 0 0 0 0 0 0 0 0 0 0 0 0 0 0 0 0 127 0"/>
<feOffset dy="4"/>
<feGaussianBlur stdDeviation="2"/>
<feColorMatrix type="matrix" values="0 0 0 0 0 0 0 0 0 0 0 0 0 0 0 0 0 0 0.25 0"/>
<feBlend mode="normal" in2="BackgroundImageFix" result="effect1_dropShadow"/>
<feBlend mode="normal" in="SourceGraphic" in2="effect1_dropShadow" result="shape"/>
<feColorMatrix in="SourceAlpha" type="matrix" values="0 0 0 0 0 0 0 0 0 0 0 0 0 0 0 0 0 0 127 0" result="hardAlpha"/>
<feOffset dy="4"/>
<feGaussianBlur stdDeviation="2"/>
<feComposite in2="hardAlpha" operator="arithmetic" k2="-1" k3="1"/>
<feColorMatrix type="matrix" values="0 0 0 0 0 0 0 0 0 0 0 0 0 0 0 0 0 0 0.25 0"/>
<feBlend mode="normal" in2="shape" result="effect2_innerShadow"/>
</filter>
<filter id="filter2_di" x="307" y="321" width="113" height="110" filterUnits="userSpaceOnUse" color-interpolation-filters="sRGB">
<feFlood flood-opacity="0" result="BackgroundImageFix"/>
<feColorMatrix in="SourceAlpha" type="matrix" values="0 0 0 0 0 0 0 0 0 0 0 0 0 0 0 0 0 0 127 0"/>
<feOffset dy="4"/>
<feGaussianBlur stdDeviation="2"/>
<feColorMatrix type="matrix" values="0 0 0 0 0 0 0 0 0 0 0 0 0 0 0 0 0 0 0.25 0"/>
<feBlend mode="normal" in2="BackgroundImageFix" result="effect1_dropShadow"/>
<feBlend mode="normal" in="SourceGraphic" in2="effect1_dropShadow" result="shape"/>
<feColorMatrix in="SourceAlpha" type="matrix" values="0 0 0 0 0 0 0 0 0 0 0 0 0 0 0 0 0 0 127 0" result="hardAlpha"/>
<feOffset dy="10"/>
<feGaussianBlur stdDeviation="5"/>
<feComposite in2="hardAlpha" operator="arithmetic" k2="-1" k3="1"/>
<feColorMatrix type="matrix" values="0 0 0 0 0 0 0 0 0 0 0 0 0 0 0 0 0 0 0.25 0"/>
<feBlend mode="normal" in2="shape" result="effect2_innerShadow"/>
</filter>
</defs>
</svg>
